<svg xmlns="http://www.w3.org/2000/svg">
	<symbol id="scroll">
		<path fill="#FFFFFF" d="M14.332,14.479c-1.279,0-2.554-0.486-3.525-1.458L0.268,1.681c-0.376-0.404-0.353-1.037,0.052-1.413
			c0.403-0.374,1.036-0.354,1.413,0.052l10.514,11.314c1.145,1.143,3.049,1.142,4.218-0.026L26.952,0.319
			c0.378-0.405,1.011-0.426,1.413-0.052c0.404,0.376,0.428,1.009,0.052,1.413L17.903,12.995
			C16.913,13.986,15.62,14.479,14.332,14.479z"/>
	</symbol>
	<symbol id="vk">
		<g>
	<path d="M545.451,400.298c-0.664-1.431-1.283-2.618-1.858-3.569c-9.514-17.135-27.695-38.167-54.532-63.102l-0.567-0.571
		l-0.284-0.28l-0.287-0.287h-0.288c-12.18-11.611-19.893-19.418-23.123-23.415c-5.91-7.614-7.234-15.321-4.004-23.13
		c2.282-5.9,10.854-18.36,25.696-37.397c7.807-10.089,13.99-18.175,18.556-24.267c32.931-43.78,47.208-71.756,42.828-83.939
		l-1.701-2.847c-1.143-1.714-4.093-3.282-8.846-4.712c-4.764-1.427-10.853-1.663-18.278-0.712l-82.224,0.568
		c-1.332-0.472-3.234-0.428-5.712,0.144c-2.475,0.572-3.713,0.859-3.713,0.859l-1.431,0.715l-1.136,0.859
		c-0.952,0.568-1.999,1.567-3.142,2.995c-1.137,1.423-2.088,3.093-2.848,4.996c-8.952,23.031-19.13,44.444-30.553,64.238
		c-7.043,11.803-13.511,22.032-19.418,30.693c-5.899,8.658-10.848,15.037-14.842,19.126c-4,4.093-7.61,7.372-10.852,9.849
		c-3.237,2.478-5.708,3.525-7.419,3.142c-1.715-0.383-3.33-0.763-4.859-1.143c-2.663-1.714-4.805-4.045-6.42-6.995
		c-1.622-2.95-2.714-6.663-3.285-11.136c-0.568-4.476-0.904-8.326-1-11.563c-0.089-3.233-0.048-7.806,0.145-13.706
		c0.198-5.903,0.287-9.897,0.287-11.991c0-7.234,0.141-15.085,0.424-23.555c0.288-8.47,0.521-15.181,0.716-20.125
		c0.194-4.949,0.284-10.185,0.284-15.705s-0.336-9.849-1-12.991c-0.656-3.138-1.663-6.184-2.99-9.137
		c-1.335-2.95-3.289-5.232-5.853-6.852c-2.569-1.618-5.763-2.902-9.564-3.856c-10.089-2.283-22.936-3.518-38.547-3.71
		c-35.401-0.38-58.148,1.906-68.236,6.855c-3.997,2.091-7.614,4.948-10.848,8.562c-3.427,4.189-3.905,6.475-1.431,6.851
		c11.422,1.711,19.508,5.804,24.267,12.275l1.715,3.429c1.334,2.474,2.666,6.854,3.999,13.134c1.331,6.28,2.19,13.227,2.568,20.837
		c0.95,13.897,0.95,25.793,0,35.689c-0.953,9.9-1.853,17.607-2.712,23.127c-0.859,5.52-2.143,9.993-3.855,13.418
		c-1.715,3.426-2.856,5.52-3.428,6.28c-0.571,0.76-1.047,1.239-1.425,1.427c-2.474,0.948-5.047,1.431-7.71,1.431
		c-2.667,0-5.901-1.334-9.707-4c-3.805-2.666-7.754-6.328-11.847-10.992c-4.093-4.665-8.709-11.184-13.85-19.558
		c-5.137-8.374-10.467-18.271-15.987-29.691l-4.567-8.282c-2.855-5.328-6.755-13.086-11.704-23.267
		c-4.952-10.185-9.329-20.037-13.134-29.554c-1.521-3.997-3.806-7.04-6.851-9.134l-1.429-0.859c-0.95-0.76-2.475-1.567-4.567-2.427
		c-2.095-0.859-4.281-1.475-6.567-1.854l-78.229,0.568c-7.994,0-13.418,1.811-16.274,5.428l-1.143,1.711
		C0.288,140.146,0,141.668,0,143.763c0,2.094,0.571,4.664,1.714,7.707c11.42,26.84,23.839,52.725,37.257,77.659
		c13.418,24.934,25.078,45.019,34.973,60.237c9.897,15.229,19.985,29.602,30.264,43.112c10.279,13.515,17.083,22.176,20.412,25.981
		c3.333,3.812,5.951,6.662,7.854,8.565l7.139,6.851c4.568,4.569,11.276,10.041,20.127,16.416
		c8.853,6.379,18.654,12.659,29.408,18.85c10.756,6.181,23.269,11.225,37.546,15.126c14.275,3.905,28.169,5.472,41.684,4.716h32.834
		c6.659-0.575,11.704-2.669,15.133-6.283l1.136-1.431c0.764-1.136,1.479-2.901,2.139-5.276c0.668-2.379,1-5,1-7.851
		c-0.195-8.183,0.428-15.558,1.852-22.124c1.423-6.564,3.045-11.513,4.859-14.846c1.813-3.33,3.859-6.14,6.136-8.418
		c2.282-2.283,3.908-3.666,4.862-4.142c0.948-0.479,1.705-0.804,2.276-0.999c4.568-1.522,9.944-0.048,16.136,4.429
		c6.187,4.473,11.99,9.996,17.418,16.56c5.425,6.57,11.943,13.941,19.555,22.124c7.617,8.186,14.277,14.271,19.985,18.274
		l5.708,3.426c3.812,2.286,8.761,4.38,14.853,6.283c6.081,1.902,11.409,2.378,15.984,1.427l73.087-1.14
		c7.229,0,12.854-1.197,16.844-3.572c3.998-2.379,6.373-5,7.139-7.851c0.764-2.854,0.805-6.092,0.145-9.712
		C546.782,404.25,546.115,401.725,545.451,400.298z"/>
</g>
	</symbol>
	<symbol id="github">
		<g>
		<path d="M436.244,146.752c5.14-15.422,7.713-31.409,7.713-47.967c0-22.08-4.859-42.828-14.564-62.242
			c-20.362,0-38.349,3.715-53.961,11.136c-15.604,7.423-33.4,18.938-53.379,34.545c-25.122-6.09-51.777-9.135-79.941-9.135
			c-30.837,0-60.245,3.333-88.223,9.994c-20.364-15.99-38.351-27.74-53.959-35.26c-15.608-7.52-33.689-11.279-54.247-11.279
			c-9.707,19.414-14.56,40.163-14.56,62.242c0,16.751,2.568,32.93,7.708,48.535C12.942,177.587,0,215.272,0,260.383
			c0,39.595,5.898,71.092,17.701,94.507c6.283,12.367,14.465,23.312,24.554,32.832c10.085,9.514,21.601,17.228,34.545,23.13
			c12.946,5.896,25.981,10.801,39.116,14.699c13.134,3.9,27.646,6.758,43.54,8.559c15.893,1.816,29.93,3.004,42.111,3.579
			c12.181,0.564,25.693,0.853,40.544,0.853c17.508,0,33.396-0.432,47.678-1.283c14.277-0.855,30.594-2.953,48.964-6.276
			c18.367-3.333,34.547-7.857,48.54-13.565c13.99-5.708,27.412-13.895,40.259-24.551c12.847-10.663,22.884-23.318,30.121-37.976
			c11.604-23.603,17.412-55.107,17.412-94.507C475.078,215.082,462.135,177.206,436.244,146.752z M401.995,354.455
			c-6.092,12.471-13.802,22.265-23.127,29.41c-9.329,7.139-20.938,12.847-34.831,17.135c-13.9,4.281-27.217,7.087-39.971,8.415
			c-12.758,1.334-26.933,1.998-42.545,1.998h-47.966c-15.607,0-29.79-0.664-42.541-1.998c-12.752-1.328-26.075-4.134-39.971-8.415
			c-13.891-4.288-25.5-9.996-34.829-17.135c-9.329-7.146-17.037-16.939-23.128-29.41c-6.09-12.471-9.136-27.076-9.136-43.824
			c0-22.847,6.567-42.264,19.702-58.245c13.134-15.99,30.929-23.982,53.387-23.982c8.188,0,26.746,1.997,55.677,5.995
			c13.513,2.093,28.456,3.14,44.823,3.14c16.372,0,31.313-1.044,44.824-3.14c29.317-3.999,47.869-5.995,55.678-5.995
			c22.457,0,40.252,7.996,53.386,23.982c13.135,15.988,19.698,35.398,19.698,58.245
			C411.125,327.382,408.079,341.995,401.995,354.455z"/>
		<path d="M166.875,265.52c-5.806-6.475-12.703-9.712-20.699-9.712c-7.998,0-14.896,3.241-20.701,9.712
			c-5.802,6.468-9.897,13.703-12.275,21.689c-2.383,8.002-3.571,15.804-3.571,23.422c0,7.61,1.191,15.413,3.571,23.414
			c2.375,7.991,6.468,15.222,12.275,21.689c5.808,6.475,12.703,9.713,20.701,9.713c7.996,0,14.896-3.244,20.699-9.713
			c5.804-6.468,9.897-13.698,12.275-21.689c2.38-8.001,3.571-15.804,3.571-23.414c0-7.611-1.188-15.42-3.571-23.422
			C176.771,279.226,172.682,271.994,166.875,265.52z"/>
		<path d="M349.601,265.52c-5.804-6.475-12.703-9.712-20.697-9.712c-7.991,0-14.894,3.241-20.701,9.712
			c-5.804,6.468-9.896,13.703-12.271,21.689c-2.385,8.002-3.576,15.804-3.576,23.422c0,7.61,1.191,15.413,3.576,23.414
			c2.375,7.991,6.468,15.222,12.271,21.689c5.808,6.475,12.71,9.713,20.701,9.713c7.994,0,14.894-3.244,20.697-9.713
			c5.801-6.468,9.896-13.698,12.278-21.689c2.379-8.001,3.569-15.804,3.569-23.414c0-7.611-1.19-15.42-3.569-23.422
			C359.498,279.226,355.402,271.994,349.601,265.52z"/>
	</g>
	</symbol>
	<symbol id="linkedin">
		<g>
			<g>
				<rect y="160" width="114.496" height="352"/>
			</g>
		</g>
		<g>
			<g>
				<path d="M426.368,164.128c-1.216-0.384-2.368-0.8-3.648-1.152c-1.536-0.352-3.072-0.64-4.64-0.896
					c-6.08-1.216-12.736-2.08-20.544-2.08c-66.752,0-109.088,48.544-123.04,67.296V160H160v352h114.496V320
					c0,0,86.528-120.512,123.04-32c0,79.008,0,224,0,224H512V274.464C512,221.28,475.552,176.96,426.368,164.128z"/>
			</g>
		</g>
		<g>
			<g>
				<circle cx="56" cy="56" r="56"/>
			</g>
		</g>
	</symbol>
	<symbol id="link">
		<path d="M18.129,16.441l-1.723,1.711c-0.633,0.633-1.488,0.973-2.379,0.973c-0.902,0-1.758-0.352-2.391-0.996
		l-2.414-2.426C8.59,15.07,8.25,14.215,8.25,13.324c0-0.926,0.375-1.805,1.031-2.449L8.25,9.844
		c-0.645,0.656-1.512,1.031-2.438,1.031c-0.891,0-1.758-0.352-2.391-0.984L0.984,7.453C0.34,6.809,0,5.965,0,5.063
		c0-0.891,0.363-1.758,0.996-2.379l1.723-1.711C3.352,0.34,4.207,0,5.098,0C6,0,6.855,0.352,7.488,0.996l2.414,2.426
		c0.633,0.633,0.973,1.488,0.973,2.379c0,0.926-0.375,1.805-1.031,2.449l1.031,1.031c0.645-0.656,1.512-1.031,2.438-1.031
		c0.891,0,1.758,0.352,2.391,0.984l2.438,2.438c0.645,0.645,0.984,1.488,0.984,2.391C19.125,14.953,18.762,15.82,18.129,16.441z
		 M8.309,5.004L5.895,2.578C5.684,2.367,5.391,2.25,5.098,2.25S4.512,2.367,4.301,2.566L2.578,4.277
		C2.367,4.488,2.25,4.77,2.25,5.063c0,0.305,0.117,0.586,0.328,0.797l2.438,2.438C5.227,8.508,5.52,8.613,5.813,8.613
		c0.34,0,0.609-0.117,0.844-0.363C6.27,7.863,5.813,7.535,5.813,6.938c0-0.621,0.504-1.125,1.125-1.125
		c0.598,0,0.926,0.457,1.313,0.844c0.246-0.234,0.387-0.504,0.387-0.855C8.637,5.508,8.52,5.215,8.309,5.004z M16.547,13.266
		l-2.438-2.438c-0.211-0.211-0.504-0.328-0.797-0.328c-0.34,0-0.609,0.129-0.844,0.375c0.387,0.387,0.844,0.715,0.844,1.313
		c0,0.621-0.504,1.125-1.125,1.125c-0.598,0-0.926-0.457-1.313-0.844c-0.246,0.234-0.387,0.504-0.387,0.855
		c0,0.293,0.117,0.586,0.328,0.797l2.414,2.426c0.211,0.211,0.504,0.316,0.797,0.316s0.586-0.105,0.797-0.305l1.723-1.711
		c0.211-0.211,0.328-0.492,0.328-0.785C16.875,13.758,16.758,13.477,16.547,13.266z"/>
	</symbol>
	<symbol id="stars">
		<svg version="1.1" id="background" xmlns="http://www.w3.org/2000/svg" xmlns:xlink="http://www.w3.org/1999/xlink" x="0px" y="0px"
	 width="186.861px" height="110.966px" viewBox="0 0 186.861 110.966" enable-background="new 0 0 186.861 110.966"
	 xml:space="preserve">
			<g>
				<circle fill="#FFFFFF" cx="70.704" cy="105.783" r="5.182"/>
				<circle fill="#FFFFFF" cx="5.183" cy="78.269" r="5.183"/>
				<circle fill="#FFFFFF" cx="121.8" cy="63.519" r="2.848"/>
				<circle fill="#FFFFFF" cx="48.859" cy="49.678" r="2.848"/>
				<circle fill="#FFFFFF" cx="33.16" cy="17.826" r="2.848"/>
				<circle fill="#FFFFFF" cx="87.597" cy="7.948" r="2.848"/>
				<polygon fill="none" stroke="#FFFFFF" stroke-width="0.75" stroke-miterlimit="10" points="5.183,78.269 70.704,105.782 
					121.801,63.519 	"/>
				<polygon fill="none" stroke="#FFFFFF" stroke-width="0.75" stroke-miterlimit="10" points="33.16,17.825 5.183,78.269 
					70.704,105.782 88.01,7.825 	"/>
				
					<line fill="none" stroke="#FFFFFF" stroke-width="0.75" stroke-miterlimit="10" x1="48.859" y1="49.677" x2="121.801" y2="63.519"/>
			</g>
			<circle fill="#FFFFFF" cx="181.678" cy="93.211" r="5.182"/>
			<circle fill="#FFFFFF" cx="136.611" cy="5.184" r="5.183"/>
			<circle fill="#FFFFFF" cx="176.274" cy="27.121" r="2.848"/>
			<circle fill="#FFFFFF" cx="123.17" cy="79.005" r="2.848"/>
			<circle fill="#FFFFFF" cx="88.066" cy="73.644" r="2.848"/>
			<circle fill="#FFFFFF" cx="111.13" cy="23.354" r="2.848"/>
			<polygon fill="none" stroke="#FFFFFF" stroke-width="0.75" stroke-miterlimit="10" points="123.17,79.005 181.678,93.21 
				176.274,27.12 "/>
			<polygon fill="none" stroke="#FFFFFF" stroke-width="0.75" stroke-miterlimit="10" points="88.065,73.644 136.611,5.183 
				181.678,93.21 111.265,22.945 "/>
			<line fill="none" stroke="#FFFFFF" stroke-width="0.75" stroke-miterlimit="10" x1="123.169" y1="79.004" x2="176.274" y2="27.12"/>
			</svg>
	</symbol>
	<symbol id="starss">
		<svg version="1.1" id="background" x="0px" y="0px"
				width="171.5px" height="132.5px" viewBox="0 0 171.5 132.5" enable-background="new 0 0 171.5 132.5" xml:space="preserve">
			<circle fill="#FFFFFF" cx="4.25" cy="92.25" r="4.25"/>
			<circle fill="#FFFFFF" cx="48.25" cy="128.25" r="4.25"/>
			<circle fill="#FFFFFF" cx="72.75" cy="52.75" r="4.75"/>
			<circle fill="#FFFFFF" cx="8.25" cy="22.25" r="4.25"/>
			<circle fill="#FFFFFF" cx="117.25" cy="96.25" r="2.75"/>
			<circle fill="#FFFFFF" cx="126.25" cy="41.25" r="1.911"/>
			<circle fill="#FFFFFF" cx="167.25" cy="4.25" r="4.25"/>
			<polyline fill="none" stroke="#FFFFFF" stroke-miterlimit="10" points="72.75,52.75 117.25,96.25 4.25,92.25 48.25,128.25 
				117.25,96.25 167.25,4.25 126.25,41.25 72.75,54.334 8.25,22.25 "/>
			<line fill="none" stroke="#FFFFFF" stroke-miterlimit="10" x1="48.25" y1="131.334" x2="8.5" y2="24.339"/>
		</svg>
	</symbol>
	<symbol id="starsss">
		<svg x="0px" y="0px" viewBox="0 0 103.03 124.03" enable-background="new 0 0 103.03 124.03" xml:space="preserve">
			<circle fill="#FFFFFF" cx="5.182" cy="60.182" r="5.182"/>
			<circle fill="#FFFFFF" cx="50.182" cy="5.182" r="5.182"/>
			<circle fill="#FFFFFF" cx="31.182" cy="121.182" r="2.848"/>
			<circle fill="#FFFFFF" cx="65.182" cy="55.182" r="2.848"/>
			<circle fill="#FFFFFF" cx="100.182" cy="49.182" r="2.848"/>
			<circle fill="#FFFFFF" cx="94.182" cy="104.182" r="2.848"/>
			<polygon fill="none" stroke="#FFFFFF" stroke-width="0.75" stroke-miterlimit="10" points="50.183,5.182 5.183,60.182 
				31.183,121.183 "/>
			<polygon fill="none" stroke="#FFFFFF" stroke-width="0.75" stroke-miterlimit="10" points="100.183,49.182 50.183,5.182 
				5.183,60.182 94.183,104.612 "/>
			<line fill="none" stroke="#FFFFFF" stroke-width="0.75" stroke-miterlimit="10" x1="65.183" y1="55.182" x2="31.183" y2="121.183"/>
		</svg>
	</symbol>
	<symbol id="arrow-down">
		<path fill="#FFFFFF" d="M13.293,15.871c-0.391,0.391-1.016,0.391-1.406,0L0.293,4.293c-0.391-0.391-0.391-1.031,0-1.422
		l2.594-2.578c0.391-0.391,1.016-0.391,1.406,0L12.59,8.59l8.297-8.297c0.391-0.391,1.016-0.391,1.406,0l2.594,2.578
		c0.391,0.391,0.391,1.031,0,1.422L13.293,15.871z"/>
	</symbol>
	<symbol id="skype">
		<g id="skype_1_"><g><path d="M511.994,256c0,141.387-114.607,255.988-255.996,255.996C114.613,511.988,0.006,397.387,0.006,256    c0-141.381,114.607-255.996,255.992-255.996C397.387,0.004,511.994,114.619,511.994,256z" fill="#004cd1"/><path d="M152.086,262.076l5.219,102.109l143.771,143.771c99.936-17.766,179.785-93.461,203.59-191.178    L354.684,166.797l-148.989-25.406L152.086,262.076z" opacity="0.1"/></g><path d="M393.449,289.756c1.383-7.883,2.109-16.016,2.109-24.273   c0-77.076-62.483-139.59-139.561-139.59c-8.289,0-16.391,0.734-24.289,2.123c-13.101-8.975-28.921-14.232-45.998-14.232   c-44.961,0.008-81.418,36.443-81.41,81.404c-0.008,17.094,5.25,32.93,14.234,46.039c-1.375,7.867-2.094,15.998-2.109,24.256   c0,77.078,62.473,139.592,139.572,139.592c8.266-0.008,16.398-0.727,24.289-2.109c13.078,8.984,28.922,14.219,46.007,14.219   c44.952,0,81.405-36.443,81.405-81.404C407.691,318.709,402.434,302.85,393.449,289.756z M315.951,322.529   c-5.313,7.563-13.125,13.484-23.391,17.766c-10.258,4.297-22.43,6.422-36.484,6.422c-16.891,0.008-30.82-2.898-41.78-8.766   c-7.75-4.211-14.063-9.836-18.945-16.891c-4.843-7.023-7.296-13.875-7.296-20.539c-0.008-3.852,1.477-7.172,4.358-9.906   c2.938-2.766,6.648-4.117,11.164-4.117c3.656,0,6.766,1.063,9.281,3.219c2.492,2.117,4.688,5.32,6.453,9.508   c2.18,5.039,4.547,9.195,7.069,12.555c2.516,3.367,6.078,6.148,10.664,8.297c4.586,2.203,10.625,3.297,18.063,3.297   c10.297,0,18.633-2.219,25.031-6.594c6.398-4.406,9.625-9.867,9.625-16.461c0-5.211-1.711-9.445-5.18-12.695   c-3.469-3.266-7.938-5.75-13.438-7.469c-5.477-1.688-12.781-3.508-21.977-5.438c-12.273-2.68-22.563-5.773-30.835-9.273   c-8.258-3.57-14.883-8.367-19.688-14.482c-4.898-6.125-7.304-13.742-7.304-22.773c-0.008-8.688,2.554-16.352,7.702-23.055   c5.102-6.703,12.547-11.891,22.258-15.477c9.741-3.633,21.155-5.414,34.28-5.414c10.492,0,19.602,1.164,27.242,3.586   c7.664,2.383,14.008,5.547,19.07,9.508c5.008,4,8.742,8.164,11.063,12.508c2.336,4.344,3.492,8.609,3.492,12.734   c0,3.813-1.453,7.242-4.32,10.273c-2.938,3.023-6.586,4.563-10.938,4.563c-3.953,0-7-0.93-9.047-2.742   c-2.047-1.82-4.289-4.82-6.688-8.961c-3.117-5.914-6.852-10.586-11.211-13.914c-4.359-3.297-11.359-4.961-20.992-4.961   c-8.945,0-16.125,1.813-21.625,5.43c-5.492,3.594-8.218,7.945-8.218,13c0,3.141,0.921,5.891,2.788,8.148   c1.875,2.297,4.438,4.258,7.703,5.898c3.25,1.656,6.563,2.914,9.922,3.891c3.336,0.914,8.844,2.258,16.555,4.023   c9.617,2.094,18.336,4.391,26.156,6.906c7.805,2.498,14.461,5.514,19.953,9.092c5.508,3.609,9.773,8.086,12.82,13.57   c3.085,5.469,4.608,12.164,4.601,20.094C323.919,306.389,321.247,314.92,315.951,322.529z" fill="#F4F6F9" id="Skype_2_"/></g>
	</symbol>
	<symbol id="phone">
		<path fill="#004cd1" d="M361.178,110.5c-12.427,0-22.5,10.073-22.5,22.5s10.073,22.5,22.5,22.5s22.5-10.073,22.5-22.5
	S373.604,110.5,361.178,110.5z M374.611,142.203c-1.034,1.601-1.934,3.261-6.258,3.358c-4.418,0.004-8.989-3.655-12.318-7.307
	c-3.323-3.232-6.396-7.408-6.394-11.457c0.1-4.324,1.76-5.224,3.36-6.258c0,0,0.876-0.368,1.639,0.295
	c0.762,0.663,4.103,4.005,4.103,4.005s1.188,0.991,0.369,2.089c-0.652,0.874-2.157,2.484-2.354,2.696l0.564,1.063
	c0.755,1.244,2.194,3.43,4.349,5.201c1.453,1.195,3.911,2.506,3.91,2.504c0.354-0.329,1.823-1.689,2.641-2.301
	c1.098-0.82,2.088,0.367,2.088,0.367s3.342,3.343,4.006,4.105C374.979,141.327,374.611,142.203,374.611,142.203z"/>
	</symbol>
	<symbol id="map_k">
		<g>
	<circle fill="#004cd1" cx="356.342" cy="92.018" r="5.854"/>
	<path fill="#004cd1" d="M356.25,72.532c-12.427,0-22.5,10.073-22.5,22.5s10.073,22.5,22.5,22.5s22.5-10.073,22.5-22.5
		S368.677,72.532,356.25,72.532z M356.25,110.414c-1.438-1.127-11.252-9.062-11.252-17.422c0-6.203,4.98-11.24,11.16-11.339v-0.004
		c0.031,0,0.062,0.001,0.092,0.001s0.061-0.001,0.092-0.001v0.004c6.18,0.099,11.16,5.136,11.16,11.339
		C367.502,101.352,357.688,109.287,356.25,110.414z"/>
</g>
	</symbol>
	<symbol id="mail">
		<path fill="#004cd1" d="M1161.25,328.75c-12.427,0-22.5,10.073-22.5,22.5s10.073,22.5,22.5,22.5s22.5-10.073,22.5-22.5
	S1173.677,328.75,1161.25,328.75z M1147.969,346.354l7.269,4.442l-7.269,9.138V346.354z M1148.799,360.895l7.51-9.443l4.926,3.012
	l4.918-3.028l7.518,9.46H1148.799z M1174.531,359.974l-7.311-9.197l7.311-4.502V359.974z M1174.531,344.811L1161.234,353
	l-13.265-8.106v-2.208h26.563V344.811z"/>
	</symbol>
</svg>